<svg id="bd125ce3-9091-4f1a-8280-420ae86c14be" data-name="Calque 1" xmlns="http://www.w3.org/2000/svg" viewBox="0 0 94 94"><defs><style>.ab44528a-42a4-40a0-bf84-46fc0e03c1cb{fill:#9b9fa2;}.a7b1e891-93be-439f-91de-83ef29871fa1{fill:#d22771;}</style></defs><title>icone-divtec</title><path class="ab44528a-42a4-40a0-bf84-46fc0e03c1cb" d="M18.9,23.89a6,6,0,0,1,6.05,6V76.52a6,6,0,0,1-12.09,0V29.93a6,6,0,0,1,6-6Z"/><path class="ab44528a-42a4-40a0-bf84-46fc0e03c1cb" d="M33,23.89a6,6,0,0,1,6,6V76.52a6.05,6.05,0,0,1-12.1,0V29.93A6,6,0,0,1,33,23.89Z"/><path class="a7b1e891-93be-439f-91de-83ef29871fa1" d="M47,11.17a6,6,0,0,1,6,6V63.8A6,6,0,0,1,41,63.8V17.22a6,6,0,0,1,6-6"/><path class="ab44528a-42a4-40a0-bf84-46fc0e03c1cb" d="M61.05,24.15a6,6,0,0,1,6,6.05V76.78a6,6,0,1,1-12.09,0V30.2a6,6,0,0,1,6-6.05Z"/><path class="ab44528a-42a4-40a0-bf84-46fc0e03c1cb" d="M75.1,23.89a6,6,0,0,1,6,6V76.52a6,6,0,0,1-12.09,0V29.93a6,6,0,0,1,6-6Z"/></svg>