<?xml version="1.0" encoding="utf-8"?>
<!-- Generator: Adobe Illustrator 15.0.0, SVG Export Plug-In . SVG Version: 6.00 Build 0)  -->
<!DOCTYPE svg PUBLIC "-//W3C//DTD SVG 1.1//EN" "http://www.w3.org/Graphics/SVG/1.1/DTD/svg11.dtd">
<svg version="1.1" id="Calque_1" xmlns="http://www.w3.org/2000/svg" xmlns:xlink="http://www.w3.org/1999/xlink" x="0px" y="0px"
	 width="612px" height="181.955px" viewBox="0 0 612 181.955" enable-background="new 0 0 612 181.955" xml:space="preserve">
<g>
	<g>
		<path fill="#DC006B" d="M175.532,107.376h12.541c2.66,0,4.895,0.342,6.712,1.021c1.81,0.675,3.258,1.619,4.345,2.827
			c1.086,1.204,1.859,2.646,2.333,4.323c0.467,1.679,0.7,3.503,0.7,5.474c0,2.022-0.317,3.84-0.943,5.455
			c-0.626,1.612-1.532,2.983-2.702,4.104s-2.59,1.981-4.251,2.584c-1.667,0.605-3.52,0.905-5.567,0.905h-13.167V107.376z
			 M185.886,128.019h1.038c0.863,0,1.553-0.15,2.071-0.446s0.951-0.714,1.292-1.26c0.348-0.567,0.588-1.31,0.724-2.235
			c0.132-0.926,0.202-2.044,0.202-3.353c0-1.306-0.07-2.427-0.202-3.353c-0.136-0.923-0.376-1.672-0.724-2.239
			c-0.341-0.539-0.773-0.961-1.292-1.257c-0.519-0.299-1.208-0.445-2.071-0.445h-1.038V128.019z"/>
		<path fill="#DC006B" d="M204.972,107.376h10.577v26.693h-10.577V107.376z"/>
		<path fill="#DC006B" d="M217.14,107.376h10.765l3.771,20.858l0.077-0.004l3.92-20.854h10.135l-7.472,26.693h-13.686
			L217.14,107.376z"/>
		<path fill="#DC006B" d="M247.397,107.376h10.577v26.693h-10.577V107.376z"/>
		<path fill="#DC006B" d="M275.542,114.945c-0.024-0.839-0.247-1.424-0.668-1.744c-0.417-0.324-0.975-0.484-1.661-0.484
			c-0.867,0-1.486,0.153-1.87,0.463c-0.383,0.313-0.571,0.669-0.571,1.09c0,0.498,0.146,0.86,0.446,1.097
			c0.292,0.229,0.724,0.438,1.292,0.613c0.519,0.146,1.121,0.306,1.814,0.48c0.689,0.17,1.413,0.354,2.179,0.553
			c0.766,0.199,1.535,0.415,2.312,0.645c0.78,0.236,1.497,0.505,2.166,0.801c1.699,0.714,2.932,1.657,3.698,2.83
			c0.766,1.174,1.149,2.573,1.149,4.202c0,1.633-0.313,3.033-0.947,4.206c-0.626,1.17-1.514,2.138-2.66,2.89
			c-1.149,0.752-2.514,1.306-4.087,1.664c-1.581,0.355-3.308,0.536-5.181,0.536c-1.601,0-3.147-0.14-4.641-0.425
			c-1.49-0.285-2.81-0.766-3.958-1.448c-1.149-0.676-2.058-1.591-2.736-2.743c-0.679-1.146-1.017-2.604-1.017-4.353h10.131
			c0,0.369,0.045,0.742,0.132,1.101c0.087,0.362,0.23,0.683,0.425,0.954c0.446,0.574,1.135,0.863,2.075,0.863
			c0.787,0,1.406-0.216,1.866-0.651c0.456-0.432,0.683-0.943,0.683-1.535c0-0.494-0.174-0.884-0.515-1.17
			c-0.348-0.278-0.766-0.494-1.26-0.644l-7.51-2.222c-2.044-0.619-3.481-1.531-4.307-2.743c-0.829-1.208-1.239-2.678-1.239-4.404
			c0-2.792,1.065-4.937,3.199-6.447c2.134-1.505,5.156-2.257,9.083-2.257c1.65,0,3.189,0.144,4.62,0.425
			c1.431,0.282,2.664,0.745,3.701,1.386c1.034,0.641,1.845,1.494,2.437,2.556c0.595,1.059,0.891,2.367,0.891,3.917H275.542z"/>
		<path fill="#DC006B" d="M288.452,107.376h10.577v26.693h-10.577V107.376z"/>
		<path fill="#DC006B" d="M301.838,120.725c0-2.071,0.289-3.969,0.867-5.696c0.581-1.73,1.444-3.217,2.59-4.463
			c1.149-1.243,2.583-2.207,4.311-2.887c1.727-0.675,3.739-1.017,6.026-1.017c2.294,0,4.307,0.342,6.033,1.017
			c1.727,0.68,3.161,1.644,4.307,2.887c1.146,1.246,2.013,2.732,2.587,4.463c0.581,1.728,0.87,3.625,0.87,5.696
			c0,2.075-0.289,3.973-0.87,5.699c-0.574,1.727-1.441,3.21-2.587,4.456c-1.146,1.25-2.58,2.214-4.307,2.89
			c-1.727,0.679-3.739,1.017-6.033,1.017c-2.287,0-4.3-0.338-6.026-1.017c-1.728-0.676-3.162-1.64-4.311-2.89
			c-1.146-1.246-2.009-2.729-2.59-4.456C302.127,124.697,301.838,122.8,301.838,120.725z M312.787,120.725
			c0,1.556,0.07,2.795,0.223,3.718c0.146,0.923,0.342,1.637,0.592,2.145c0.244,0.505,0.544,0.839,0.885,0.992
			c0.345,0.167,0.728,0.244,1.146,0.244c0.396,0,0.772-0.077,1.132-0.244c0.354-0.153,0.661-0.487,0.904-0.992
			c0.244-0.508,0.446-1.222,0.592-2.145c0.15-0.923,0.224-2.162,0.224-3.718c0-1.501-0.07-2.72-0.206-3.646
			c-0.136-0.919-0.327-1.644-0.574-2.158c-0.243-0.516-0.547-0.863-0.905-1.038c-0.354-0.174-0.745-0.257-1.166-0.257
			c-0.418,0-0.805,0.083-1.159,0.257c-0.362,0.175-0.662,0.522-0.912,1.038c-0.244,0.515-0.436,1.239-0.571,2.158
			C312.854,118.005,312.787,119.224,312.787,120.725z"/>
		<path fill="#DC006B" d="M332.242,107.376h12.687l5.657,16.154l0.073,0.004v-16.158h8.585v26.693h-12.687l-5.66-16.266h-0.077
			v16.266h-8.578V107.376z"/>
		<path fill="#DC006B" d="M379.473,114.559h-6.584v-7.183h23.747v7.183h-6.587v19.511h-10.576V114.559z"/>
		<path fill="#DC006B" d="M398.635,107.376h20.304v6.963H408.77v2.831h9.393v6.967h-9.393v2.97h10.496v6.963h-20.631V107.376z"/>
		<path fill="#DC006B" d="M447.16,124.192c0,1.852-0.345,3.45-1.021,4.779c-0.679,1.334-1.591,2.431-2.733,3.294
			c-1.148,0.867-2.481,1.504-4,1.915c-1.515,0.403-3.095,0.605-4.749,0.605c-2.343,0-4.372-0.338-6.089-1.017
			c-1.709-0.676-3.133-1.64-4.269-2.89c-1.138-1.246-1.97-2.736-2.514-4.47c-0.546-1.741-0.814-3.674-0.814-5.797
			c-0.073-2.072,0.174-3.966,0.759-5.679c0.578-1.717,1.452-3.182,2.625-4.404c1.17-1.222,2.625-2.172,4.349-2.852
			c1.724-0.675,3.722-1.017,5.985-1.017c1.685,0,3.272,0.185,4.776,0.558c1.504,0.369,2.819,0.968,3.955,1.796
			c1.135,0.822,2.04,1.915,2.719,3.273c0.676,1.357,1.021,3.015,1.021,4.961h-9.693c-0.045-0.763-0.146-1.383-0.296-1.849
			c-0.149-0.471-0.334-0.836-0.553-1.094c-0.224-0.257-0.48-0.438-0.78-0.536c-0.292-0.098-0.603-0.146-0.923-0.146
			c-0.692,0-1.232,0.167-1.626,0.497c-0.396,0.331-0.696,0.815-0.912,1.445c-0.209,0.627-0.334,1.379-0.383,2.256
			c-0.049,0.874-0.076,1.838-0.076,2.9c0,1.013,0.027,1.953,0.076,2.83c0.049,0.874,0.174,1.63,0.369,2.256
			c0.195,0.627,0.487,1.121,0.87,1.477c0.376,0.358,0.905,0.536,1.567,0.536c0.688,0,1.253-0.251,1.685-0.759
			c0.432-0.505,0.686-1.463,0.759-2.872H447.16z"/>
		<path fill="#DC006B" d="M465.062,124.22h-4.516v9.85H449.97v-26.693h10.576v9.028h4.516v-9.028h10.577v26.693h-10.577V124.22z"/>
		<path fill="#DC006B" d="M479.412,107.376h12.68l5.661,16.154l0.077,0.004v-16.158h8.578v26.693h-12.68l-5.661-16.266h-0.076
			v16.266h-8.579V107.376z"/>
		<path fill="#DC006B" d="M510.182,107.376h10.577v26.693h-10.577V107.376z"/>
		<path fill="#DC006B" d="M552.013,134.069h-6.653c-0.445,0-0.968,0.034-1.56,0.097c-0.592,0.063-1.232,0.144-1.922,0.244
			c-0.718,0.101-1.448,0.188-2.2,0.265c-0.749,0.073-1.525,0.111-2.312,0.111c-2.291,0-4.304-0.338-6.03-1.017
			c-1.724-0.676-3.161-1.64-4.311-2.89c-1.146-1.246-2.005-2.729-2.583-4.456c-0.585-1.727-0.87-3.624-0.87-5.699
			c0-2.071,0.285-3.969,0.87-5.696c0.578-1.73,1.438-3.217,2.583-4.463c1.149-1.243,2.587-2.207,4.311-2.887
			c1.727-0.675,3.739-1.017,6.03-1.017c2.245,0,4.219,0.313,5.922,0.947c1.695,0.627,3.115,1.525,4.251,2.695
			c1.135,1.176,1.98,2.59,2.552,4.24c0.567,1.657,0.853,3.506,0.853,5.557c0,0.839-0.063,1.602-0.185,2.294
			c-0.129,0.692-0.303,1.33-0.539,1.922c-0.237,0.596-0.516,1.159-0.856,1.688c-0.327,0.529-0.689,1.055-1.083,1.57h3.732V134.069z
			 M534.521,120.731c0,1.556,0.069,2.792,0.219,3.718c0.146,0.923,0.342,1.641,0.592,2.148c0.244,0.501,0.544,0.836,0.885,0.996
			c0.349,0.16,0.731,0.243,1.149,0.243c0.393,0,0.772-0.083,1.128-0.243c0.354-0.16,0.661-0.495,0.905-0.996
			c0.247-0.508,0.445-1.226,0.592-2.148c0.149-0.926,0.219-2.162,0.219-3.718c0-1.508-0.063-2.719-0.198-3.646
			c-0.136-0.926-0.327-1.65-0.571-2.165c-0.25-0.516-0.55-0.863-0.905-1.038c-0.361-0.174-0.744-0.257-1.169-0.257
			c-0.418,0-0.809,0.083-1.163,0.257c-0.358,0.175-0.662,0.522-0.905,1.038c-0.251,0.515-0.438,1.239-0.571,2.165
			C534.584,118.013,534.521,119.224,534.521,120.731z"/>
		<path fill="#DC006B" d="M579.161,125.136c0,3.228-1.11,5.644-3.332,7.245c-2.214,1.604-5.333,2.405-9.351,2.405
			c-4.046,0-7.172-0.801-9.38-2.405c-2.207-1.602-3.314-4.018-3.314-7.245v-17.76h10.584v17.307c0,1.059,0.209,1.811,0.627,2.256
			c0.418,0.446,0.912,0.665,1.483,0.665c0.563,0,1.055-0.219,1.476-0.665c0.425-0.445,0.627-1.197,0.627-2.256v-17.307h10.58
			V125.136z"/>
		<path fill="#DC006B" d="M582.751,107.376h20.308v6.963h-10.177v2.831h9.394v6.967h-9.394v2.97h10.507v6.963h-20.638V107.376z"/>
	</g>
	<path fill-rule="evenodd" clip-rule="evenodd" fill="#B1B2B1" d="M23.23,48.892c6.26,0,11.322,5.062,11.322,11.313v87.205
		c0,6.246-5.062,11.308-11.322,11.308c-6.246,0-11.312-5.062-11.312-11.308V60.205C11.918,53.954,16.984,48.892,23.23,48.892
		L23.23,48.892z"/>
	<path fill-rule="evenodd" clip-rule="evenodd" fill="#B1B2B1" d="M49.529,48.897c6.253,0,11.315,5.062,11.315,11.311v87.202
		c0,6.246-5.062,11.308-11.312,11.308c-6.256,0-11.322-5.062-11.322-11.308V60.208c0-6.254,5.065-11.311,11.312-11.311H49.529z"/>
	<path fill-rule="evenodd" clip-rule="evenodd" fill="#DC006B" d="M75.825,24.965c6.246,0,11.312,5.065,11.312,11.317v87.196
		c0,6.245-5.066,11.308-11.312,11.308c-6.246,0-11.312-5.063-11.312-11.308V36.282C64.514,30.024,69.579,24.965,75.825,24.965
		L75.825,24.965z"/>
	<path fill-rule="evenodd" clip-rule="evenodd" fill="#B1B2B1" d="M102.125,48.897c6.246,0,11.315,5.062,11.315,11.315v87.198
		c0,6.246-5.069,11.308-11.312,11.308c-6.26,0-11.322-5.062-11.322-11.308V60.212c0-6.258,5.062-11.315,11.315-11.315H102.125z"/>
	<path fill-rule="evenodd" clip-rule="evenodd" fill="#B1B2B1" d="M128.42,48.892c6.249,0,11.315,5.062,11.315,11.31v87.202
		c0,6.253-5.066,11.314-11.315,11.314c-6.256,0-11.322-5.062-11.322-11.314V60.202c0-6.253,5.065-11.31,11.318-11.31H128.42z"/>
	<g>
		<path fill="#17171D" d="M207.019,69.967c0,2.221-0.404,4.129-1.219,5.73c-0.818,1.598-1.915,2.917-3.29,3.952
			c-1.378,1.041-2.98,1.804-4.801,2.288c-1.824,0.491-3.725,0.738-5.717,0.738c-2.813,0-5.25-0.411-7.311-1.226
			c-2.061-0.814-3.771-1.97-5.132-3.464c-1.365-1.497-2.375-3.29-3.025-5.379s-0.979-4.408-0.979-6.956
			c-0.09-2.489,0.216-4.763,0.912-6.82c0.696-2.061,1.748-3.823,3.154-5.29c1.407-1.466,3.151-2.608,5.226-3.421
			c2.071-0.816,4.474-1.222,7.2-1.222c2.016,0,3.927,0.219,5.737,0.667c1.807,0.442,3.395,1.165,4.759,2.157
			c1.358,0.994,2.448,2.307,3.266,3.936c0.815,1.633,1.219,3.615,1.219,5.958h-11.642c-0.063-0.916-0.181-1.657-0.359-2.225
			c-0.177-0.557-0.4-0.996-0.665-1.309c-0.268-0.31-0.578-0.526-0.933-0.644c-0.355-0.119-0.731-0.179-1.114-0.179
			c-0.829,0-1.483,0.202-1.957,0.601c-0.474,0.4-0.836,0.978-1.09,1.733c-0.25,0.752-0.404,1.657-0.466,2.706
			c-0.06,1.055-0.087,2.214-0.087,3.485c0,1.218,0.028,2.346,0.087,3.398c0.063,1.051,0.208,1.957,0.445,2.708
			c0.237,0.755,0.585,1.344,1.044,1.775c0.459,0.432,1.09,0.644,1.891,0.644c0.829,0,1.504-0.303,2.026-0.908
			c0.515-0.606,0.818-1.751,0.905-3.433H207.019z"/>
		<path fill="#17171D" d="M210.41,49.731h24.405v8.364h-12.22v3.412h11.287v8.363h-11.287v3.603h12.624v8.363H210.41V49.731z"/>
		<path fill="#17171D" d="M251.004,49.731h12.718v21.828c0,1.87-0.337,3.499-1.02,4.892c-0.682,1.393-1.646,2.548-2.89,3.467
			c-1.246,0.919-2.743,1.608-4.491,2.068c-1.748,0.456-3.704,0.689-5.87,0.689c-1.866,0-3.614-0.209-5.247-0.623
			c-1.633-0.415-3.046-1.034-4.244-1.863c-1.205-0.829-2.151-1.866-2.848-3.109c-0.696-1.243-1.044-2.677-1.044-4.307v-1.553h10.761
			v0.662c0,0.738,0.16,1.323,0.484,1.765c0.327,0.442,0.801,0.661,1.427,0.661c0.919,0,1.525-0.289,1.821-0.867
			c0.296-0.578,0.442-1.414,0.442-2.514V49.731z"/>
		<path fill="#17171D" d="M268.043,49.731h24.405v8.364h-12.224v3.412h11.291v8.363h-11.291v3.603h12.624v8.363h-24.806V49.731z"/>
		<path fill="#17171D" d="M296.062,49.731h24.406v8.364H308.77v3.412h10.894v8.363H308.77v11.966h-12.708V49.731z"/>
	</g>
</g>
</svg>
