<svg id="ab283bfc-a089-456e-9eeb-b14ba7160f81" data-name="Calque 1" xmlns="http://www.w3.org/2000/svg" viewBox="0 0 285 94"><defs><style>.a5508966-f00c-45e3-8ab4-2c4e3a2a60d1{fill:#9b9fa2;}.aa3900ca-59a0-4b58-a871-1882c60b8ea3{fill:#d22771;}.bb9ab5fa-92b0-4398-b97d-9e83b1678854{fill:#100f18;}</style></defs><title>logo-divtec</title><path class="a5508966-f00c-45e3-8ab4-2c4e3a2a60d1" d="M21.65,49.18a3.66,3.66,0,0,1,3.66,3.66V81A3.66,3.66,0,0,1,18,81V52.84a3.66,3.66,0,0,1,3.66-3.66Z"/><path class="a5508966-f00c-45e3-8ab4-2c4e3a2a60d1" d="M30.15,49.18a3.66,3.66,0,0,1,3.67,3.66V81a3.67,3.67,0,0,1-7.33,0V52.84A3.66,3.66,0,0,1,30.15,49.18Z"/><path class="aa3900ca-59a0-4b58-a871-1882c60b8ea3" d="M38.66,41.48a3.66,3.66,0,0,1,3.66,3.66V73.35a3.66,3.66,0,0,1-7.32,0V45.14a3.66,3.66,0,0,1,3.66-3.66"/><path class="a5508966-f00c-45e3-8ab4-2c4e3a2a60d1" d="M47.17,49.34A3.66,3.66,0,0,1,50.83,53V81.2a3.66,3.66,0,1,1-7.32,0V53a3.65,3.65,0,0,1,3.65-3.66Z"/><path class="a5508966-f00c-45e3-8ab4-2c4e3a2a60d1" d="M55.67,49.18a3.66,3.66,0,0,1,3.66,3.66V81A3.66,3.66,0,1,1,52,81V52.84a3.66,3.66,0,0,1,3.66-3.66Z"/><path class="aa3900ca-59a0-4b58-a871-1882c60b8ea3" d="M73.77,45.39h4.09l-2.71,3H72Zm-4.21,3.88h9.67v3.31H74.39v1.36h4.47v3.31H74.39v1.43h5V62H69.56Z"/><path class="aa3900ca-59a0-4b58-a871-1882c60b8ea3" d="M92.67,57.28c0,3.51-2.8,5-6,5-4.46,0-6.52-2.71-6.52-6.74s2.24-6.65,6.54-6.65c3.2,0,5.92,1.31,5.93,5H88.06c-.07-1.44-.6-1.72-1.22-1.72-1.3,0-1.42,1.34-1.42,3.38S85.52,59,86.79,59c.65,0,1.09-.39,1.16-1.73Z"/><path class="aa3900ca-59a0-4b58-a871-1882c60b8ea3" d="M100.12,59c.78,0,1.36-.44,1.36-3.38s-.54-3.38-1.36-3.38-1.35.51-1.35,3.38S99.35,59,100.12,59m0-10.08c4.39,0,6.58,2.73,6.58,6.7s-2.19,6.69-6.58,6.69-6.57-2.73-6.57-6.69,2.19-6.7,6.57-6.7"/><polygon class="aa3900ca-59a0-4b58-a871-1882c60b8ea3" points="108.03 49.27 113.07 49.27 113.07 58.57 117.71 58.57 117.71 61.99 108.03 61.99 108.03 49.27"/><polygon class="aa3900ca-59a0-4b58-a871-1882c60b8ea3" points="118.78 49.27 128.45 49.27 128.45 52.58 123.61 52.58 123.61 53.94 128.08 53.94 128.08 57.25 123.61 57.25 123.61 58.67 128.61 58.67 128.61 61.99 118.78 61.99 118.78 49.27"/><path class="aa3900ca-59a0-4b58-a871-1882c60b8ea3" d="M141,59.1h.5a1.7,1.7,0,0,0,1.6-.81,5.42,5.42,0,0,0,.44-2.66,5.4,5.4,0,0,0-.44-2.66,1.7,1.7,0,0,0-1.6-.81H141Zm-4.93-9.83h6c5.09,0,6.71,2.73,6.71,6.5S146.26,62,142.35,62h-6.27Z"/><polygon class="aa3900ca-59a0-4b58-a871-1882c60b8ea3" points="150.1 49.27 159.77 49.27 159.77 52.58 154.93 52.58 154.93 53.94 159.4 53.94 159.4 57.25 154.93 57.25 154.93 58.67 159.93 58.67 159.93 61.99 150.1 61.99 150.1 49.27"/><path class="aa3900ca-59a0-4b58-a871-1882c60b8ea3" d="M167.77,52.88a1,1,0,0,0-1.11-1.06c-.81,0-1.16.35-1.16.74s.3.65.83.81a38.33,38.33,0,0,1,4,1.18,3.38,3.38,0,0,1,2.31,3.35c0,3.12-2.54,4.42-6.13,4.42-3.07,0-5.88-1-5.88-4.26h4.82a1.62,1.62,0,0,0,.27,1,1.16,1.16,0,0,0,1,.4,1.1,1.1,0,0,0,1.22-1c0-.47-.37-.72-.85-.86l-3.57-1.06a3.22,3.22,0,0,1-2.65-3.4c0-2.64,2.13-4.14,5.85-4.14,3.18,0,5.55,1,5.55,4Z"/><polygon class="aa3900ca-59a0-4b58-a871-1882c60b8ea3" points="192.66 52.9 192.63 52.9 190.83 61.99 186.22 61.99 184.42 52.9 184.38 52.9 184.38 61.99 180.12 61.99 180.12 49.27 187.11 49.27 188.51 56.84 188.54 56.84 189.93 49.27 196.93 49.27 196.93 61.99 192.66 61.99 192.66 52.9"/><path class="aa3900ca-59a0-4b58-a871-1882c60b8ea3" d="M202.93,45.39H207l-2.71,3h-3.1Zm-4.21,3.88h9.68v3.31h-4.85v1.36H208v3.31h-4.48v1.43h5V62h-9.83Z"/><polygon class="aa3900ca-59a0-4b58-a871-1882c60b8ea3" points="212.11 52.69 208.98 52.69 208.98 49.27 220.29 49.27 220.29 52.69 217.15 52.69 217.15 61.99 212.11 61.99 212.11 52.69"/><rect class="aa3900ca-59a0-4b58-a871-1882c60b8ea3" x="221.24" y="49.27" width="5.04" height="12.72"/><polygon class="aa3900ca-59a0-4b58-a871-1882c60b8ea3" points="228.07 49.27 237.74 49.27 237.74 52.58 232.9 52.58 232.9 53.94 237.37 53.94 237.37 57.25 232.9 57.25 232.9 58.67 237.9 58.67 237.9 61.99 228.07 61.99 228.07 49.27"/><path class="aa3900ca-59a0-4b58-a871-1882c60b8ea3" d="M244.52,54.57c1,0,1.68-.33,1.68-1.28s-.65-1.13-1.64-1.13h-.46v2.41Zm-5.35-5.3h7.52c2.73,0,4.34.83,4.34,3.22a2.85,2.85,0,0,1-2.52,3v0a2.11,2.11,0,0,1,2.15,1.62c.28,1.09.24,2.89.82,4.81h-4.93a30.11,30.11,0,0,1-.63-3.65c-.11-.63-.43-.88-1.24-.88h-.58V62h-4.93Z"/><path class="aa3900ca-59a0-4b58-a871-1882c60b8ea3" d="M259.1,52.88A1,1,0,0,0,258,51.82c-.8,0-1.16.35-1.16.74s.3.65.83.81a38.33,38.33,0,0,1,4,1.18A3.38,3.38,0,0,1,264,57.9c0,3.12-2.54,4.42-6.13,4.42-3.06,0-5.88-1-5.88-4.26h4.83a1.68,1.68,0,0,0,.26,1,1.17,1.17,0,0,0,1,.4,1.09,1.09,0,0,0,1.21-1c0-.47-.37-.72-.85-.86l-3.57-1.06a3.21,3.21,0,0,1-2.64-3.4c0-2.64,2.13-4.14,5.85-4.14,3.17,0,5.55,1,5.55,4Z"/><polygon class="aa3900ca-59a0-4b58-a871-1882c60b8ea3" points="72.54 73.69 69.41 73.69 69.41 70.27 80.71 70.27 80.71 73.69 77.58 73.69 77.58 82.99 72.54 82.99 72.54 73.69"/><polygon class="aa3900ca-59a0-4b58-a871-1882c60b8ea3" points="81.67 70.27 91.34 70.27 91.34 73.58 86.49 73.58 86.49 74.94 90.97 74.94 90.97 78.25 86.49 78.25 86.49 79.68 91.5 79.68 91.5 82.99 81.67 82.99 81.67 70.27"/><path class="aa3900ca-59a0-4b58-a871-1882c60b8ea3" d="M104.78,78.29c0,3.5-2.8,5-6,5-4.45,0-6.52-2.72-6.52-6.75s2.24-6.64,6.54-6.64c3.21,0,5.92,1.3,5.94,5h-4.62c-.07-1.44-.6-1.72-1.21-1.72-1.31,0-1.43,1.34-1.43,3.38S97.63,80,98.89,80c.66,0,1.1-.38,1.17-1.72Z"/><polygon class="aa3900ca-59a0-4b58-a871-1882c60b8ea3" points="113.3 78.31 111.16 78.31 111.16 82.99 106.12 82.99 106.12 70.27 111.16 70.27 111.16 74.57 113.3 74.57 113.3 70.27 118.34 70.27 118.34 82.99 113.3 82.99 113.3 78.31"/><polygon class="aa3900ca-59a0-4b58-a871-1882c60b8ea3" points="120.14 70.27 126.18 70.27 128.88 77.97 128.91 77.97 128.91 70.27 133 70.27 133 82.99 126.96 82.99 124.26 75.24 124.22 75.24 124.22 82.99 120.14 82.99 120.14 70.27"/><rect class="aa3900ca-59a0-4b58-a871-1882c60b8ea3" x="134.8" y="70.27" width="5.04" height="12.72"/><path class="aa3900ca-59a0-4b58-a871-1882c60b8ea3" d="M147.74,80c.78,0,1.36-.44,1.36-3.38s-.55-3.38-1.36-3.38-1.35.51-1.35,3.38S147,80,147.74,80m7,3h-3.17a13.59,13.59,0,0,0-1.66.16,16.25,16.25,0,0,1-2.15.18c-4.38,0-6.57-2.74-6.57-6.7s2.19-6.69,6.57-6.69,6.47,2.48,6.47,6.39a5.21,5.21,0,0,1-1.27,3.56h1.78Z"/><path class="aa3900ca-59a0-4b58-a871-1882c60b8ea3" d="M167.65,78.73c0,3.06-2.2,4.6-6,4.6s-6-1.54-6-4.6V70.27h5v8.25c0,1,.48,1.39,1,1.39s1-.39,1-1.39V70.27h5Z"/><polygon class="aa3900ca-59a0-4b58-a871-1882c60b8ea3" points="169.36 70.27 179.03 70.27 179.03 73.58 174.19 73.58 174.19 74.94 178.66 74.94 178.66 78.25 174.19 78.25 174.19 79.68 179.19 79.68 179.19 82.99 169.36 82.99 169.36 70.27"/><path class="aa3900ca-59a0-4b58-a871-1882c60b8ea3" d="M187,73.88c0-.79-.46-1-1.11-1-.81,0-1.17.35-1.17.74s.31.65.83.81a34.72,34.72,0,0,1,4,1.18,3.38,3.38,0,0,1,2.31,3.35c0,3.11-2.54,4.42-6.13,4.42-3.07,0-5.89-1-5.89-4.27h4.83a1.66,1.66,0,0,0,.26,1,1.18,1.18,0,0,0,1,.41,1.11,1.11,0,0,0,1.22-1c0-.48-.37-.73-.85-.87l-3.58-1a3.23,3.23,0,0,1-2.64-3.4c0-2.64,2.13-4.14,5.85-4.14,3.17,0,5.55,1,5.55,3.94Z"/><path class="bb9ab5fa-92b0-4398-b97d-9e83b1678854" d="M80.68,20.12c0,2.88-2.31,4.14-4.9,4.14-3.66,0-5.36-2.23-5.36-5.54s1.84-5.46,5.38-5.46c2.63,0,4.86,1.07,4.88,4.14h-3.8c-.06-1.19-.49-1.42-1-1.42-1.07,0-1.17,1.1-1.17,2.78s.09,2.78,1.13,2.78c.53,0,.9-.32,1-1.42Z"/><polygon class="bb9ab5fa-92b0-4398-b97d-9e83b1678854" points="81.78 13.54 89.72 13.54 89.72 16.25 85.74 16.25 85.74 17.37 89.42 17.37 89.42 20.09 85.74 20.09 85.74 21.27 89.85 21.27 89.85 23.99 81.78 23.99 81.78 13.54"/><path class="bb9ab5fa-92b0-4398-b97d-9e83b1678854" d="M95,13.53h4.14v7.11c0,2.44-1.84,3.62-4.64,3.62-2.45,0-4.36-1.1-4.36-3.23v-.5h3.5v.21c0,.48.22.8.63.8.59,0,.73-.39.73-1.1Z"/><polygon class="bb9ab5fa-92b0-4398-b97d-9e83b1678854" points="100.54 13.54 108.49 13.54 108.49 16.25 104.5 16.25 104.5 17.37 108.19 17.37 108.19 20.09 104.5 20.09 104.5 21.27 108.62 21.27 108.62 23.99 100.54 23.99 100.54 13.54"/><polygon class="bb9ab5fa-92b0-4398-b97d-9e83b1678854" points="109.66 13.54 117.61 13.54 117.61 16.25 113.8 16.25 113.8 17.37 117.35 17.37 117.35 20.09 113.8 20.09 113.8 23.99 109.66 23.99 109.66 13.54"/><path class="bb9ab5fa-92b0-4398-b97d-9e83b1678854" d="M72.15,37.88c2.07,0,2.91-1.21,2.91-3.06,0-2.17-1.27-3.13-3.35-3.07h-1v6.13ZM72,31.14c2.41,0,3.79,1.24,3.79,3.68S74.4,38.49,72,38.49H70V31.14Z"/><rect class="bb9ab5fa-92b0-4398-b97d-9e83b1678854" x="77.52" y="31.11" width="0.66" height="7.38"/><polygon class="bb9ab5fa-92b0-4398-b97d-9e83b1678854" points="82.4 37.83 82.42 37.83 84.75 31.14 85.41 31.14 82.75 38.49 82 38.49 79.32 31.14 80.04 31.14 82.4 37.83"/><rect class="bb9ab5fa-92b0-4398-b97d-9e83b1678854" x="86.56" y="31.11" width="0.66" height="7.38"/><path class="bb9ab5fa-92b0-4398-b97d-9e83b1678854" d="M91.08,38.49a2.13,2.13,0,0,1-2.19-2.07h.71c0,1.13.86,1.46,1.84,1.46.83,0,1.78-.48,1.78-1.42,0-.73-.53-1.08-1.16-1.28-1.18-.39-3-.77-3-2.36a2.44,2.44,0,0,1,4.74-.23h-.72c0-.91-.84-1.14-1.59-1.14s-1.71.39-1.71,1.28c0,2.09,4.15,1.14,4.15,3.67,0,1.6-1.38,2.09-2.85,2.09"/><rect class="bb9ab5fa-92b0-4398-b97d-9e83b1678854" x="95.61" y="31.11" width="0.66" height="7.38"/><path class="bb9ab5fa-92b0-4398-b97d-9e83b1678854" d="M101.3,37.88c1.84,0,2.57-1.61,2.57-3.22s-.73-3.21-2.57-3.21-2.56,1.6-2.56,3.21.73,3.22,2.56,3.22m0,.61C99.2,38.49,98,37,98,34.66s1.17-3.82,3.27-3.82,3.28,1.53,3.28,3.82-1.17,3.83-3.28,3.83"/><polygon class="bb9ab5fa-92b0-4398-b97d-9e83b1678854" points="106.2 31.14 106.95 31.14 111 37.6 111.02 37.6 111.02 31.14 111.68 31.14 111.68 38.49 110.85 38.49 106.88 32.14 106.86 32.14 106.86 38.49 106.2 38.49 106.2 31.14"/><path class="bb9ab5fa-92b0-4398-b97d-9e83b1678854" d="M172.64,38.33v-.61h-3.89v-2.9h3.59V34.2h-3.59V31.55h3.73v-.62h-4.39v7.4Zm-12-7.4v4.8a2.71,2.71,0,1,0,5.41,0v-4.8h-.66v4.79a2,2,0,1,1-4.08,0V30.93Zm-1.4,7.4v-.61a14,14,0,0,0-1.61.07l0,0A3.91,3.91,0,0,0,159,34.63c0-2.3-1.18-3.85-3.3-3.85s-3.3,1.55-3.3,3.85,1.18,3.86,3.3,3.86a2.79,2.79,0,0,0,.76-.14,4.83,4.83,0,0,1,1.31,0Zm-1.66-.52h0v0h0Zm-4.5-3.18c0-1.62.73-3.24,2.58-3.24s2.58,1.62,2.58,3.24-.73,3.24-2.58,3.24-2.58-1.62-2.58-3.24m-2.49-3.73h-.67v7.43h.67Zm-8.23,7.43H143V31.94h0l4,6.39h.84v-7.4h-.67v6.51h0l-4.08-6.51h-.76Zm-6.66,0V34.8h4v3.53h.66v-7.4h-.66v3.25h-4V30.93H135v7.4Zm-2.25-5.66c-.1-1.34-1.25-1.89-2.46-1.89-2.23,0-3.19,1.82-3.19,3.85s1,3.86,3.19,3.86a2.46,2.46,0,0,0,2.54-2h-.71A1.74,1.74,0,0,1,131,37.87c-1.9,0-2.47-1.72-2.47-3.24s.57-3.24,2.47-3.24a1.56,1.56,0,0,1,1.74,1.28Zm-6.94,5.66v-.61h-3.88v-2.9h3.59V34.2h-3.59V31.55h3.73v-.62H122v7.4Zm-8.75,0h.65V31.55h2.35v-.62h-5.41v.62h2.38Z"/></svg>